<svg width="390" height="659" viewBox="0 0 390 659" fill="none" xmlns="http://www.w3.org/2000/svg">
<rect x="25" y="-159" width="495" height="713" rx="247.5" fill="#18331C"/>
<path d="M-230 217C-230 110.961 -144.039 25 -38 25H2C108.039 25 194 110.961 194 217V467C194 573.039 108.039 659 2 659H-38C-144.039 659 -230 573.039 -230 467V217Z" fill="#18331C"/>
<rect x="8" y="-213" width="495" height="713" rx="247.5" fill="#6E9971"/>
<path d="M-247 163C-247 56.9613 -161.039 -29 -55 -29H-15C91.0387 -29 177 56.9613 177 163V413C177 519.039 91.0387 605 -15 605H-55C-161.039 605 -247 519.039 -247 413V163Z" fill="#6E9971"/>
<rect x="-1" y="-259" width="495" height="713" rx="247.5" fill="#B4D9B6"/>
<path d="M-256 117C-256 10.9613 -170.039 -75 -64 -75H-24C82.0387 -75 168 10.9613 168 117V367C168 473.039 82.0387 559 -24 559H-64C-170.039 559 -256 473.039 -256 367V117Z" fill="#B4D9B6"/>
</svg>
