<svg width="109" height="71" viewBox="0 0 109 71" fill="none" xmlns="http://www.w3.org/2000/svg">
<path d="M9.86304 17.2903H4.65674V4.61454H0V1.05394H14.5198V4.61454H9.86304V17.2903Z" fill="#18331C"/>
<path d="M29.091 5.01333C29.2645 5.22222 29.3899 5.74444 29.467 6.57999C29.5634 7.41555 29.6116 8.68787 29.6116 10.397V17.2903H24.6656V10.4539C24.6656 10.378 24.6656 10.0077 24.6656 9.34302C24.6656 8.65939 24.6174 8.24161 24.521 8.08969C24.4632 8.01373 24.3185 7.95676 24.0871 7.91878C23.875 7.8808 23.6244 7.86181 23.3351 7.86181L22.8434 7.8903C22.3035 7.90929 21.7443 8.03272 21.1658 8.2606V17.2903H16.2199V0.199395L21.1658 0V3.33273C21.1658 4.7 21.1176 5.61151 21.0212 6.06727L21.0501 6.09575C22.3614 4.63353 23.9329 3.90242 25.7647 3.90242C26.4589 3.90242 27.1049 3.99737 27.7026 4.18727C28.3197 4.37717 28.7825 4.65252 29.091 5.01333Z" fill="#18331C"/>
<path d="M39.9661 13.8721C40.4482 13.8721 41.3448 13.8246 42.656 13.7297C42.8296 13.7297 43.1477 13.7107 43.6105 13.6727L44.0444 16.6067C42.5596 17.2903 40.6314 17.6321 38.2596 17.6321C36.0421 17.6321 34.3356 17.0814 33.1401 15.98C31.9639 14.8786 31.3757 13.217 31.3757 10.9951C31.3757 9.85575 31.5204 8.75434 31.8096 7.6909C32.1181 6.62747 32.4652 5.88686 32.8509 5.46909C33.2558 5.05131 34.0078 4.6905 35.1069 4.38666C36.206 4.08283 37.2955 3.93091 38.3753 3.93091C40.1107 3.93091 41.4123 4.23475 42.28 4.84242C43.1477 5.4501 43.7166 6.29515 43.9865 7.37757C44.2565 8.441 44.3915 9.87474 44.3915 11.6788C43.0803 11.7547 41.798 11.7927 40.5446 11.7927H36.4374C36.4374 12.4004 36.5627 12.8562 36.8134 13.16C37.0834 13.4638 37.4594 13.6632 37.9415 13.7582C38.4235 13.8341 39.0984 13.8721 39.9661 13.8721ZM36.7267 7.3206C36.611 7.37757 36.5242 7.62444 36.4663 8.06121C36.4085 8.49797 36.3699 8.99171 36.3506 9.54242H37.8547C38.761 9.54242 39.4166 9.53292 39.8215 9.51393C39.8215 8.60242 39.6865 7.95676 39.4166 7.57696C39.1659 7.19717 38.7224 7.00727 38.0861 7.00727C37.5654 7.00727 37.1123 7.11171 36.7267 7.3206Z" fill="#18331C"/>
<path d="M1.64841 20.9617H17.6529V25.5192H8.59014V29.4691H16.226V33.5709H8.59014V37.9766H17.6144V42.6101H1.64841V20.9617Z" fill="#18331C"/>
<path d="M23.4889 33.6849L19.0539 25.1394H25.4558L28.6567 31.8998L31.8961 25.1394H38.2594L33.863 33.6849L38.6836 42.6101H32.2432L28.6567 35.394L25.0701 42.6101H18.6297L23.4889 33.6849Z" fill="#18331C"/>
<path d="M52.3965 24.7596C54.2477 24.7596 55.7131 25.3673 56.793 26.5827C57.8985 27.7727 58.4513 29.8616 58.4513 32.8493C58.4513 35.0775 58.2327 36.9005 57.7957 38.3184C57.3586 39.711 56.8572 40.6352 56.2916 41.0909C55.726 41.5467 54.7361 41.9138 53.3221 42.1924C51.9337 42.4709 50.494 42.6101 49.0028 42.6101C48.5657 42.6101 47.833 42.5848 46.8046 42.5342V47.9273L40.2099 48.1932V25.1394H45.6091L46.2647 27.836C46.9331 26.8992 47.7816 26.1522 48.81 25.5952C49.8641 25.0382 51.0596 24.7596 52.3965 24.7596ZM50.8539 37.9766C51.1367 37.774 51.3424 37.2043 51.471 36.2675C51.5995 35.3054 51.6638 34.3938 51.6638 33.533C51.6638 32.1151 51.4838 31.0643 51.1239 30.3806C50.7639 29.697 50.0441 29.3552 48.9642 29.3552C48.1929 29.3552 47.473 29.4312 46.8046 29.5831V38.0146L47.8844 38.1285C48.2186 38.1538 48.6943 38.1665 49.3113 38.1665C50.1855 38.1665 50.6997 38.1032 50.8539 37.9766Z" fill="#18331C"/>
<path d="M71.7963 38.0526C72.4391 38.0526 73.6346 37.9893 75.3829 37.8627C75.6143 37.8627 76.0385 37.8373 76.6555 37.7867L77.234 41.6986C75.2543 42.6101 72.6833 43.0659 69.521 43.0659C66.5643 43.0659 64.289 42.3316 62.6949 40.8631C61.1266 39.3945 60.3425 37.179 60.3425 34.2166C60.3425 32.6974 60.5353 31.2289 60.9209 29.8109C61.3323 28.393 61.7951 27.4056 62.3093 26.8485C62.8492 26.2915 63.8519 25.8104 65.3174 25.4053C66.7828 25.0002 68.2355 24.7976 69.6752 24.7976C71.9891 24.7976 73.7246 25.2027 74.8815 26.013C76.0385 26.8232 76.7969 27.9499 77.1569 29.3932C77.5168 30.8111 77.6968 32.7227 77.6968 35.1281C75.9485 35.2294 74.2388 35.28 72.5676 35.28H67.0914C67.0914 36.0903 67.2585 36.6979 67.5927 37.1031C67.9526 37.5082 68.454 37.774 69.0967 37.9006C69.7395 38.0019 70.6394 38.0526 71.7963 38.0526ZM67.477 29.3172C67.3227 29.3932 67.207 29.7223 67.1299 30.3047C67.0528 30.887 67.0014 31.5454 66.9757 32.2796H68.981C70.1894 32.2796 71.0636 32.267 71.6035 32.2417C71.6035 31.0263 71.4235 30.1654 71.0636 29.659C70.7293 29.1526 70.138 28.8994 69.2896 28.8994C68.5954 28.8994 67.9912 29.0387 67.477 29.3172Z" fill="#18331C"/>
<path d="M91.009 24.7596C91.3432 24.7596 91.6903 24.7976 92.0502 24.8736C92.4359 24.9495 92.7187 25.0382 92.8987 25.1394C92.8987 25.6965 92.8344 26.6206 92.7058 27.912C92.5773 29.178 92.4616 30.0768 92.3588 30.6085C92.1017 30.5832 91.626 30.5705 90.9318 30.5705C89.3121 30.5705 87.8723 30.6592 86.6125 30.8364V42.6101H80.0179V25.1394H85.5327L86.304 27.9499H86.3426C87.0882 26.9878 87.8852 26.2155 88.7336 25.6332C89.5821 25.0508 90.3405 24.7596 91.009 24.7596Z" fill="#18331C"/>
<path d="M102.806 35.432C102.806 35.8877 102.819 36.3688 102.845 36.8752C102.871 37.3563 102.948 37.6601 103.076 37.7867C103.256 37.9639 103.886 38.0526 104.966 38.0526L106.277 38.0146C106.509 39.2299 106.624 40.6352 106.624 42.2303C106.136 42.4076 105.416 42.5722 104.465 42.7241C103.539 42.876 102.652 42.9519 101.804 42.9519C100.03 42.9519 98.6541 42.5722 97.6771 41.8126C96.7259 41.0276 96.2502 39.8249 96.2502 38.2045V28.8615H93.3578V25.4053L96.2502 25.1394L97.9857 20.9617L102.806 20.6958V25.1394H106.894V28.8615H102.806V35.432Z" fill="#18331C"/>
<path d="M68.2249 62.3913H62.89L61.9259 66.3475H56.0126L61.9259 48.3071H69.4782L75.1345 66.3475H69.189L68.2249 62.3913ZM65.5253 52.2L63.6292 58.8781H67.4536L65.6539 52.2H65.5253Z" fill="#18331C"/>
<path d="M86.5988 51.4721C88.1414 51.4721 89.3627 51.9785 90.2625 52.9913C91.1838 53.983 91.6444 55.7237 91.6444 58.2135C91.6444 60.0703 91.4623 61.5895 91.0981 62.7711C90.7339 63.9315 90.3161 64.7017 89.8447 65.0815C89.3734 65.4613 88.5485 65.7672 87.3701 65.9993C86.2132 66.2314 85.0134 66.3475 83.7707 66.3475C83.4065 66.3475 82.7959 66.3264 81.9389 66.2842V70.7785L76.4433 71V51.7886H80.9426L81.4889 54.0357C82.046 53.255 82.753 52.6326 83.61 52.1684C84.4884 51.7042 85.4847 51.4721 86.5988 51.4721ZM85.3133 62.4862C85.549 62.3174 85.7204 61.8427 85.8275 61.062C85.9346 60.2602 85.9882 59.5006 85.9882 58.7832C85.9882 57.6016 85.8382 56.7259 85.5383 56.1562C85.2383 55.5865 84.6384 55.3017 83.7386 55.3017C83.0958 55.3017 82.4959 55.365 81.9389 55.4916V62.5179L82.8387 62.6128C83.1172 62.6339 83.5136 62.6445 84.0278 62.6445C84.7563 62.6445 85.1848 62.5917 85.3133 62.4862Z" fill="#18331C"/>
<path d="M103.954 51.4721C105.497 51.4721 106.718 51.9785 107.618 52.9913C108.539 53.983 109 55.7237 109 58.2135C109 60.0703 108.818 61.5895 108.454 62.7711C108.089 63.9315 107.672 64.7017 107.2 65.0815C106.729 65.4613 105.904 65.7672 104.726 65.9993C103.569 66.2314 102.369 66.3475 101.126 66.3475C100.762 66.3475 100.151 66.3264 99.2944 66.2842V70.7785L93.7989 71V51.7886H98.2982L98.8445 54.0357C99.4016 53.255 100.109 52.6326 100.966 52.1684C101.844 51.7042 102.84 51.4721 103.954 51.4721ZM102.669 62.4862C102.905 62.3174 103.076 61.8427 103.183 61.062C103.29 60.2602 103.344 59.5006 103.344 58.7832C103.344 57.6016 103.194 56.7259 102.894 56.1562C102.594 55.5865 101.994 55.3017 101.094 55.3017C100.451 55.3017 99.8515 55.365 99.2944 55.4916V62.5179L100.194 62.6128C100.473 62.6339 100.869 62.6445 101.383 62.6445C102.112 62.6445 102.54 62.5917 102.669 62.4862Z" fill="#18331C"/>
</svg>
