<svg width="51" height="74" viewBox="0 0 51 74" fill="none" xmlns="http://www.w3.org/2000/svg">
<path d="M14.875 43.75V69.25" stroke="#18331C" stroke-width="4" stroke-linecap="round" stroke-linejoin="round"/>
<path d="M31.875 34.995L29.75 43.75H42.1387C42.7985 43.75 43.4493 43.9036 44.0394 44.1987C44.6295 44.4938 45.1429 44.9222 45.5388 45.45C45.9346 45.9778 46.2022 46.5906 46.3202 47.2397C46.4382 47.8889 46.4035 48.5566 46.2188 49.19L41.2675 66.19C41.01 67.0728 40.4732 67.8483 39.7375 68.4C39.0018 68.9517 38.1071 69.25 37.1875 69.25H8.5C7.37283 69.25 6.29183 68.8022 5.4948 68.0052C4.69777 67.2082 4.25 66.1272 4.25 65V48C4.25 46.8728 4.69777 45.7918 5.4948 44.9948C6.29183 44.1978 7.37283 43.75 8.5 43.75H14.365C15.1557 43.7496 15.9306 43.5286 16.6025 43.1119C17.2745 42.6952 17.8169 42.0993 18.1688 41.3913L25.5 26.75C26.5021 26.7624 27.4884 27.0011 28.3853 27.4483C29.2822 27.8954 30.0665 28.5395 30.6795 29.3323C31.2925 30.1251 31.7184 31.0462 31.9254 32.0268C32.1325 33.0074 32.1152 34.022 31.875 34.995Z" stroke="#18331C" stroke-width="4" stroke-linecap="round" stroke-linejoin="round"/>
<path d="M16 10.5L20.216 19.5678" stroke="#18331C" stroke-width="4" stroke-linecap="round" stroke-linejoin="round"/>
<path d="M37.2158 10.5L32.9998 19.5678" stroke="#18331C" stroke-width="4" stroke-linecap="round" stroke-linejoin="round"/>
<path d="M27 2.5V17.5" stroke="#18331C" stroke-width="4" stroke-linecap="round" stroke-linejoin="round"/>
<path d="M48.8359 11.9463L38.9998 23.2711" stroke="#18331C" stroke-width="4" stroke-linecap="round" stroke-linejoin="round"/>
<path d="M4 11.9463L13.8361 23.2711" stroke="#18331C" stroke-width="4" stroke-linecap="round" stroke-linejoin="round"/>
</svg>
